4 On ch=1 n=79 v=85
476 On ch=1 n=79 v=0
4 On ch=1 n=81 v=82
56 On ch=1 n=81 v=0
4 On ch=1 n=79 v=85
56 On ch=1 n=79 v=0
4 On ch=1 n=81 v=80
236 On ch=1 n=81 v=0
4 On ch=1 n=83 v=92
116 On ch=1 n=83 v=0
4 On ch=1 n=81 v=88
236 On ch=1 n=81 v=0
4 On ch=1 n=79 v=86
116 On ch=1 n=79 v=0
4 On ch=1 n=78 v=76
116 On ch=1 n=78 v=0
4 On ch=1 n=76 v=82
236 On ch=1 n=76 v=0
4 On ch=1 n=74 v=75
720 On ch=1 n=74 v=0
0 On ch=1 n=67 v=88
60 On ch=1 n=67 v=0
0 On ch=1 n=66 v=88
60 On ch=1 n=66 v=0
0 On ch=1 n=67 v=88
360 On ch=1 n=67 v=0
0 On ch=1 n=69 v=88
60 On ch=1 n=69 v=0
0 On ch=1 n=67 v=88
60 On ch=1 n=67 v=0
0 On ch=1 n=66 v=88
60 On ch=1 n=66 v=0
0 On ch=1 n=67 v=88
60 On ch=1 n=67 v=0
0 On ch=1 n=69 v=88
60 On ch=1 n=69 v=0
0 On ch=1 n=67 v=88
60 On ch=1 n=67 v=0
0 On ch=1 n=69 v=88
60 On ch=1 n=69 v=0
0 On ch=1 n=67 v=88
60 On ch=1 n=67 v=0
0 On ch=1 n=69 v=88
60 On ch=1 n=69 v=0
0 On ch=1 n=67 v=88
60 On ch=1 n=67 v=0
0 On ch=1 n=69 v=88
60 On ch=1 n=69 v=0
0 On ch=1 n=67 v=88
60 On ch=1 n=67 v=0
0 On ch=1 n=66 v=88
120 On ch=1 n=66 v=0
0 On ch=1 n=67 v=88
120 On ch=1 n=67 v=0
0 On ch=1 n=69 v=69
56 On ch=1 n=69 v=0
4 On ch=1 n=67 v=71
56 On ch=1 n=67 v=0
4 On ch=1 n=66 v=62
116 On ch=1 n=66 v=0
4 On ch=1 n=67 v=80
56 On ch=1 n=67 v=0
4 On ch=1 n=66 v=81
60 On ch=1 n=66 v=0
0 On ch=1 n=64 v=72
120 On ch=1 n=64 v=0
0 On ch=1 n=64 v=84
236 On ch=1 n=64 v=0
4 On ch=1 n=62 v=75
716 On ch=1 n=62 v=0
4 On ch=1 n=74 v=92
476 On ch=1 n=74 v=0
4 On ch=1 n=74 v=88
476 On ch=1 n=74 v=0
4 On ch=1 n=76 v=83
56 On ch=1 n=76 v=0
4 On ch=1 n=74 v=73
56 On ch=1 n=74 v=0
4 On ch=1 n=76 v=74
236 On ch=1 n=76 v=0
4 On ch=1 n=77 v=85
116 On ch=1 n=77 v=0
4 On ch=1 n=76 v=69
236 On ch=1 n=76 v=0
4 On ch=1 n=74 v=74
116 On ch=1 n=74 v=0
4 On ch=1 n=72 v=81
116 On ch=1 n=72 v=0
4 On ch=1 n=71 v=73
236 On ch=1 n=71 v=0
4 On ch=1 n=69 v=64
480 On ch=1 n=69 v=0
0 On ch=1 n=79 v=98
56 On ch=1 n=79 v=0
4 On ch=1 n=78 v=90
56 On ch=1 n=78 v=0
4 On ch=1 n=76 v=85
56 On ch=1 n=76 v=0
4 On ch=1 n=78 v=81
56 On ch=1 n=78 v=0
4 On ch=1 n=79 v=97
56 On ch=1 n=79 v=0
4 On ch=1 n=78 v=102
176 On ch=1 n=78 v=0
4 On ch=1 n=81 v=96
56 On ch=1 n=81 v=0
4 On ch=1 n=79 v=96
176 On ch=1 n=79 v=0
4 On ch=1 n=78 v=101
56 On ch=1 n=78 v=0
4 On ch=1 n=76 v=82
180 On ch=1 n=76 v=0
0 On ch=1 n=74 v=72
56 On ch=1 n=74 v=0
4 On ch=1 n=72 v=92
180 On ch=1 n=72 v=0
0 On ch=1 n=72 v=86
120 On ch=1 n=72 v=0
0 On ch=1 n=81 v=90
236 On ch=1 n=81 v=0
4 On ch=1 n=72 v=83
116 On ch=1 n=72 v=0
4 On ch=1 n=71 v=68
56 On ch=1 n=71 v=0
4 On ch=1 n=67 v=71
180 On ch=1 n=67 v=0
0 On ch=1 n=66 v=84
240 On ch=1 n=66 v=0
0 On ch=1 n=66 v=90
240 On ch=1 n=66 v=0
0 On ch=1 n=67 v=73
716 On ch=1 n=67 v=0
4 On ch=1 n=71 v=82
476 On ch=1 n=71 v=0
4 On ch=1 n=71 v=88
476 On ch=1 n=71 v=0
4 On ch=1 n=73 v=77
56 On ch=1 n=73 v=0
4 On ch=1 n=71 v=74
56 On ch=1 n=71 v=0
4 On ch=1 n=73 v=82
236 On ch=1 n=73 v=0
4 On ch=1 n=74 v=89
116 On ch=1 n=74 v=0
4 On ch=1 n=74 v=95
116 On ch=1 n=74 v=0
4 On ch=1 n=73 v=92
116 On ch=1 n=73 v=0
4 On ch=1 n=71 v=91
116 On ch=1 n=71 v=0
4 On ch=1 n=69 v=75
960 On ch=1 n=69 v=0
120 On ch=1 n=67 v=93
60 On ch=1 n=71 v=93
60 On ch=1 n=76 v=93
60 On ch=1 n=79 v=93
120 On ch=1 n=71 v=0
60 On ch=1 n=76 v=0
60 On ch=1 n=79 v=0
60 On ch=1 n=67 v=0
0 On ch=1 n=81 v=117
60 On ch=1 n=81 v=0
0 On ch=1 n=79 v=90
56 On ch=1 n=79 v=0
4 On ch=1 n=78 v=70
60 On ch=1 n=78 v=0
0 On ch=1 n=79 v=86
56 On ch=1 n=79 v=0
4 On ch=1 n=81 v=83
56 On ch=1 n=81 v=0
4 On ch=1 n=79 v=81
56 On ch=1 n=79 v=0
4 On ch=1 n=81 v=77
56 On ch=1 n=81 v=0
4 On ch=1 n=79 v=85
56 On ch=1 n=79 v=0
4 On ch=1 n=81 v=81
56 On ch=1 n=81 v=0
4 On ch=1 n=79 v=90
56 On ch=1 n=79 v=0
4 On ch=1 n=81 v=80
56 On ch=1 n=81 v=0
4 On ch=1 n=79 v=79
60 On ch=1 n=79 v=0
0 On ch=1 n=78 v=85
120 On ch=1 n=78 v=0
0 On ch=1 n=79 v=85
120 On ch=1 n=79 v=0
0 On ch=1 n=79 v=93
236 On ch=1 n=79 v=0
4 On ch=1 n=78 v=80
116 On ch=1 n=78 v=0
4 On ch=1 n=76 v=73
120 On ch=1 n=76 v=0
0 On ch=1 n=74 v=80
236 On ch=1 n=74 v=0
4 On ch=1 n=73 v=85
476 On ch=1 n=73 v=0
4 On ch=1 n=76 v=90
240 On ch=1 n=76 v=0
0 On ch=1 n=81 v=93
116 On ch=1 n=81 v=0
4 On ch=1 n=79 v=88
120 On ch=1 n=79 v=0
0 On ch=1 n=78 v=88
116 On ch=1 n=78 v=0
4 On ch=1 n=76 v=86
116 On ch=1 n=76 v=0
4 On ch=1 n=74 v=80
236 On ch=1 n=74 v=0
4 On ch=1 n=69 v=81
536 On ch=1 n=69 v=0
4 On ch=1 n=71 v=78
56 On ch=1 n=71 v=0
4 On ch=1 n=72 v=90
120 On ch=1 n=72 v=0
0 On ch=1 n=71 v=86
116 On ch=1 n=71 v=0
4 On ch=1 n=69 v=65
116 On ch=1 n=69 v=0
4 On ch=1 n=67 v=70
116 On ch=1 n=67 v=0
4 On ch=1 n=66 v=80
116 On ch=1 n=66 v=0
4 On ch=1 n=64 v=89
240 On ch=1 n=64 v=0
0 On ch=1 n=74 v=85
116 On ch=1 n=74 v=0
4 On ch=1 n=73 v=80
416 On ch=1 n=73 v=0
4 On ch=1 n=74 v=78
56 On ch=1 n=74 v=0
4 On ch=1 n=76 v=77
116 On ch=1 n=76 v=0
4 On ch=1 n=74 v=83
116 On ch=1 n=74 v=0
4 On ch=1 n=73 v=89
116 On ch=1 n=73 v=0
4 On ch=1 n=71 v=84
116 On ch=1 n=71 v=0
4 On ch=1 n=69 v=80
116 On ch=1 n=69 v=0
4 On ch=1 n=79 v=97
236 On ch=1 n=79 v=0
4 On ch=1 n=71 v=86
480 On ch=1 n=71 v=0
0 On ch=1 n=73 v=85
236 On ch=1 n=73 v=0
4 On ch=1 n=73 v=88
120 On ch=1 n=73 v=0
0 On ch=1 n=74 v=85
180 On ch=1 n=74 v=0
0 On ch=1 n=76 v=78
56 On ch=1 n=76 v=0
4 On ch=1 n=74 v=83
56 On ch=1 n=74 v=0
4 On ch=1 n=73 v=80
60 On ch=1 n=73 v=0
0 On ch=1 n=73 v=84
236 On ch=1 n=73 v=0
4 On ch=1 n=74 v=75
720 On ch=1 n=74 v=0
0 On ch=1 n=69 v=113
60 On ch=1 n=69 v=0
0 On ch=1 n=67 v=113
60 On ch=1 n=67 v=0
0 On ch=1 n=69 v=113
360 On ch=1 n=69 v=0
0 On ch=1 n=71 v=75
60 On ch=1 n=71 v=0
0 On ch=1 n=69 v=75
60 On ch=1 n=69 v=0
0 On ch=1 n=67 v=75
60 On ch=1 n=67 v=0
0 On ch=1 n=69 v=75
60 On ch=1 n=69 v=0
0 On ch=1 n=71 v=75
60 On ch=1 n=71 v=0
0 On ch=1 n=69 v=75
60 On ch=1 n=69 v=0
0 On ch=1 n=71 v=75
60 On ch=1 n=71 v=0
0 On ch=1 n=69 v=75
60 On ch=1 n=69 v=0
0 On ch=1 n=71 v=75
60 On ch=1 n=71 v=0
0 On ch=1 n=69 v=75
120 On ch=1 n=69 v=0
0 On ch=1 n=71 v=75
60 On ch=1 n=71 v=0
0 On ch=1 n=72 v=75
60 On ch=1 n=72 v=0
0 On ch=1 n=74 v=75
60 On ch=1 n=74 v=0
0 On ch=1 n=76 v=75
120 On ch=1 n=76 v=0
0 On ch=1 n=76 v=113
116 On ch=1 n=76 v=0
4 On ch=1 n=74 v=85
116 On ch=1 n=74 v=0
4 On ch=1 n=72 v=96
116 On ch=1 n=72 v=0
4 On ch=1 n=71 v=75
116 On ch=1 n=71 v=0
4 On ch=1 n=69 v=73
236 On ch=1 n=69 v=0
4 On ch=1 n=67 v=85
480 On ch=1 n=67 v=0
0 On ch=1 n=79 v=102
236 On ch=1 n=79 v=0
4 On ch=1 n=78 v=101
116 On ch=1 n=78 v=0
4 On ch=1 n=76 v=102
240 On ch=1 n=76 v=0
0 On ch=1 n=78 v=86
60 On ch=1 n=78 v=0
0 On ch=1 n=75 v=92
60 On ch=1 n=75 v=0
0 On ch=1 n=75 v=93
236 On ch=1 n=75 v=0
4 On ch=1 n=76 v=92
476 On ch=1 n=76 v=0
4 On ch=1 n=81 v=101
56 On ch=1 n=81 v=0
4 On ch=1 n=83 v=109
56 On ch=1 n=83 v=0
4 On ch=1 n=81 v=97
56 On ch=1 n=81 v=0
4 On ch=1 n=79 v=92
56 On ch=1 n=79 v=0
4 On ch=1 n=81 v=111
356 On ch=1 n=81 v=0
4 On ch=1 n=78 v=96
116 On ch=1 n=78 v=0
4 On ch=1 n=76 v=93
236 On ch=1 n=76 v=0
4 On ch=1 n=75 v=101
476 On ch=1 n=75 v=0
4 On ch=1 n=71 v=101
240 On ch=1 n=71 v=0
0 On ch=1 n=76 v=90
60 On ch=1 n=76 v=0
0 On ch=1 n=78 v=90
60 On ch=1 n=78 v=0
0 On ch=1 n=79 v=101
240 On ch=1 n=79 v=0
0 On ch=1 n=78 v=102
116 On ch=1 n=78 v=0
4 On ch=1 n=78 v=106
236 On ch=1 n=78 v=0
4 On ch=1 n=76 v=97
356 On ch=1 n=76 v=0
4 On ch=1 n=71 v=85
116 On ch=1 n=71 v=0
4 On ch=1 n=72 v=95
56 On ch=1 n=72 v=0
4 On ch=1 n=71 v=88
56 On ch=1 n=71 v=0
4 On ch=1 n=69 v=84
56 On ch=1 n=69 v=0
4 On ch=1 n=71 v=80
56 On ch=1 n=71 v=0
4 On ch=1 n=79 v=109
56 On ch=1 n=79 v=0
4 On ch=1 n=76 v=90
176 On ch=1 n=76 v=0
4 On ch=1 n=78 v=99
56 On ch=1 n=78 v=0
4 On ch=1 n=75 v=101
116 On ch=1 n=75 v=0
64 On ch=1 n=75 v=117
236 On ch=1 n=75 v=0
4 On ch=1 n=76 v=102
356 On ch=1 n=76 v=0
4 On ch=1 n=67 v=92
116 On ch=1 n=67 v=0
4 On ch=1 n=66 v=86
116 On ch=1 n=66 v=0
4 On ch=1 n=64 v=80
116 On ch=1 n=64 v=0
4 On ch=1 n=66 v=97
360 On ch=1 n=66 v=0
0 On ch=1 n=76 v=121
120 On ch=1 n=76 v=0
0 On ch=1 n=75 v=117
60 On ch=1 n=75 v=0
0 On ch=1 n=76 v=75
60 On ch=1 n=76 v=0
0 On ch=1 n=78 v=75
60 On ch=1 n=78 v=0
0 On ch=1 n=79 v=85
56 On ch=1 n=79 v=0
4 On ch=1 n=81 v=117
236 On ch=1 n=81 v=0
4 On ch=1 n=79 v=109
236 On ch=1 n=79 v=0
4 On ch=1 n=78 v=117
236 On ch=1 n=78 v=0
4 On ch=1 n=78 v=102
116 On ch=1 n=78 v=0
4 On ch=1 n=76 v=117
240 On ch=1 n=76 v=0
0 On ch=1 n=78 v=89
56 On ch=1 n=78 v=0
4 On ch=1 n=75 v=99
56 On ch=1 n=75 v=0
4 On ch=1 n=75 v=88
236 On ch=1 n=75 v=0
4 On ch=1 n=76 v=91
716 On ch=1 n=76 v=0
4 On ch=1 n=76 v=91
236 On ch=1 n=76 v=0
4 On ch=1 n=74 v=78
116 On ch=1 n=74 v=0
4 On ch=1 n=72 v=72
116 On ch=1 n=72 v=0
4 On ch=1 n=71 v=72
236 On ch=1 n=71 v=0
4 On ch=1 n=69 v=59
476 On ch=1 n=69 v=0
4 On ch=1 n=71 v=69
116 On ch=1 n=71 v=0
4 On ch=1 n=72 v=75
116 On ch=1 n=72 v=0
4 On ch=1 n=74 v=74
56 On ch=1 n=74 v=0
4 On ch=1 n=72 v=74
56 On ch=1 n=72 v=0
4 On ch=1 n=71 v=65
116 On ch=1 n=71 v=0
4 On ch=1 n=72 v=71
56 On ch=1 n=72 v=0
4 On ch=1 n=71 v=78
56 On ch=1 n=71 v=0
4 On ch=1 n=69 v=67
56 On ch=1 n=69 v=0
64 On ch=1 n=69 v=68
236 On ch=1 n=69 v=0
4 On ch=1 n=67 v=72
476 On ch=1 n=67 v=0
4 On ch=1 n=69 v=68
116 On ch=1 n=69 v=0
4 On ch=1 n=71 v=62
116 On ch=1 n=71 v=0
4 On ch=1 n=72 v=73
116 On ch=1 n=72 v=0
4 On ch=1 n=74 v=73
116 On ch=1 n=74 v=0
4 On ch=1 n=72 v=82
116 On ch=1 n=72 v=0
4 On ch=1 n=71 v=82
116 On ch=1 n=71 v=0
4 On ch=1 n=72 v=74
116 On ch=1 n=72 v=0
4 On ch=1 n=69 v=76
116 On ch=1 n=69 v=0
4 On ch=1 n=64 v=76
116 On ch=1 n=64 v=0
4 On ch=1 n=69 v=69
116 On ch=1 n=69 v=0
4 On ch=1 n=72 v=83
476 On ch=1 n=72 v=0
124 On ch=1 n=74 v=81
116 On ch=1 n=74 v=0
4 On ch=1 n=72 v=83
116 On ch=1 n=72 v=0
4 On ch=1 n=71 v=71
116 On ch=1 n=71 v=0
4 On ch=1 n=72 v=72
116 On ch=1 n=72 v=0
4 On ch=1 n=69 v=68
116 On ch=1 n=69 v=0
4 On ch=1 n=66 v=72
116 On ch=1 n=66 v=0
4 On ch=1 n=69 v=88
116 On ch=1 n=69 v=0
4 On ch=1 n=72 v=90
116 On ch=1 n=72 v=0
4 On ch=1 n=76 v=86
116 On ch=1 n=76 v=0
4 On ch=1 n=74 v=84
116 On ch=1 n=74 v=0
4 On ch=1 n=72 v=83
116 On ch=1 n=72 v=0
4 On ch=1 n=71 v=78
116 On ch=1 n=71 v=0
4 On ch=1 n=72 v=77
116 On ch=1 n=72 v=0
4 On ch=1 n=71 v=72
116 On ch=1 n=71 v=0
4 On ch=1 n=69 v=71
116 On ch=1 n=69 v=0
4 On ch=1 n=71 v=77
116 On ch=1 n=71 v=0
4 On ch=1 n=67 v=81
116 On ch=1 n=67 v=0
4 On ch=1 n=62 v=72
116 On ch=1 n=62 v=0
4 On ch=1 n=67 v=80
116 On ch=1 n=67 v=0
4 On ch=1 n=71 v=81
116 On ch=1 n=71 v=0
4 On ch=1 n=67 v=72
116 On ch=1 n=67 v=0
4 On ch=1 n=72 v=88
116 On ch=1 n=72 v=0
4 On ch=1 n=74 v=88
116 On ch=1 n=74 v=0
4 On ch=1 n=76 v=88
116 On ch=1 n=76 v=0
4 On ch=1 n=77 v=84
116 On ch=1 n=77 v=0
4 On ch=1 n=76 v=86
116 On ch=1 n=76 v=0
4 On ch=1 n=74 v=78
116 On ch=1 n=74 v=0
4 On ch=1 n=76 v=85
116 On ch=1 n=76 v=0
4 On ch=1 n=72 v=75
116 On ch=1 n=72 v=0
4 On ch=1 n=67 v=73
120 On ch=1 n=67 v=0
0 On ch=1 n=72 v=88
116 On ch=1 n=72 v=0
4 On ch=1 n=76 v=93
116 On ch=1 n=76 v=0
4 On ch=1 n=72 v=77
116 On ch=1 n=72 v=0
4 On ch=1 n=78 v=76
116 On ch=1 n=78 v=0
4 On ch=1 n=79 v=91
116 On ch=1 n=79 v=0
4 On ch=1 n=81 v=98
116 On ch=1 n=81 v=0
4 On ch=1 n=72 v=81
116 On ch=1 n=72 v=0
4 On ch=1 n=71 v=80
116 On ch=1 n=71 v=0
4 On ch=1 n=69 v=71
116 On ch=1 n=69 v=0
4 On ch=1 n=71 v=76
116 On ch=1 n=71 v=0
4 On ch=1 n=72 v=80
116 On ch=1 n=72 v=0
4 On ch=1 n=74 v=84
116 On ch=1 n=74 v=0
4 On ch=1 n=67 v=76
116 On ch=1 n=67 v=0
4 On ch=1 n=71 v=88
116 On ch=1 n=71 v=0
4 On ch=1 n=69 v=75
116 On ch=1 n=69 v=0
4 On ch=1 n=67 v=82
116 On ch=1 n=67 v=0
4 On ch=1 n=66 v=86
116 On ch=1 n=66 v=0
4 On ch=1 n=67 v=90
596 On ch=1 n=67 v=0
4 On ch=1 n=62 v=76
120 On ch=1 n=62 v=0
0 On ch=1 n=67 v=97
116 On ch=1 n=67 v=0
4 On ch=1 n=66 v=94
116 On ch=1 n=66 v=0
4 On ch=1 n=66 v=92
120 On ch=1 n=66 v=0
0 On ch=1 n=67 v=92
360 On ch=1 n=67 v=0
0 On ch=1 n=67 v=111
116 On ch=1 n=67 v=0
4 On ch=1 n=66 v=123
116 On ch=1 n=66 v=0
4 On ch=1 n=67 v=115
356 On ch=1 n=67 v=0
4 On ch=1 n=62 v=97
116 On ch=1 n=62 v=0
4 On ch=1 n=64 v=106
116 On ch=1 n=64 v=0
4 On ch=1 n=66 v=101
116 On ch=1 n=66 v=0
4 On ch=1 n=67 v=97
116 On ch=1 n=67 v=0
4 On ch=1 n=69 v=100
116 On ch=1 n=69 v=0
4 On ch=1 n=71 v=99
116 On ch=1 n=71 v=0
4 On ch=1 n=73 v=92
116 On ch=1 n=73 v=0
4 On ch=1 n=74 v=102
116 On ch=1 n=74 v=0
4 On ch=1 n=73 v=92
116 On ch=1 n=73 v=0
4 On ch=1 n=74 v=111
356 On ch=1 n=74 v=0
4 On ch=1 n=69 v=83
116 On ch=1 n=69 v=0
4 On ch=1 n=71 v=98
116 On ch=1 n=71 v=0
4 On ch=1 n=73 v=104
116 On ch=1 n=73 v=0
4 On ch=1 n=74 v=96
116 On ch=1 n=74 v=0
4 On ch=1 n=76 v=107
116 On ch=1 n=76 v=0
4 On ch=1 n=78 v=102
116 On ch=1 n=78 v=0
4 On ch=1 n=74 v=100
116 On ch=1 n=74 v=0
4 On ch=1 n=79 v=109
120 On ch=1 n=79 v=0
0 On ch=1 n=78 v=104
120 On ch=1 n=78 v=0
0 On ch=1 n=79 v=111
360 On ch=1 n=79 v=0
0 On ch=1 n=78 v=106
116 On ch=1 n=78 v=0
4 On ch=1 n=76 v=104
116 On ch=1 n=76 v=0
4 On ch=1 n=74 v=84
116 On ch=1 n=74 v=0
4 On ch=1 n=73 v=108
116 On ch=1 n=73 v=0
4 On ch=1 n=76 v=95
116 On ch=1 n=76 v=0
4 On ch=1 n=69 v=85
116 On ch=1 n=69 v=0
4 On ch=1 n=67 v=93
116 On ch=1 n=67 v=0
4 On ch=1 n=66 v=110
116 On ch=1 n=66 v=0
4 On ch=1 n=64 v=98
116 On ch=1 n=64 v=0
4 On ch=1 n=62 v=100
116 On ch=1 n=62 v=0
4 On ch=1 n=61 v=106
116 On ch=1 n=61 v=0
4 On ch=1 n=62 v=90
116 On ch=1 n=62 v=0
4 On ch=1 n=66 v=104
116 On ch=1 n=66 v=0
4 On ch=1 n=57 v=96
116 On ch=1 n=57 v=0
4 On ch=1 n=55 v=95
116 On ch=1 n=55 v=0
4 On ch=1 n=54 v=110
116 On ch=1 n=54 v=0
4 On ch=1 n=57 v=101
116 On ch=1 n=57 v=0
4 On ch=1 n=50 v=98
236 On ch=1 n=50 v=0
244 On ch=1 n=74 v=93
116 On ch=1 n=74 v=0
4 On ch=1 n=72 v=85
116 On ch=1 n=72 v=0
4 On ch=1 n=74 v=101
116 On ch=1 n=74 v=0
124 On ch=1 n=67 v=97
116 On ch=1 n=67 v=0
124 On ch=1 n=59 v=88
116 On ch=1 n=59 v=0
124 On ch=1 n=74 v=101
116 On ch=1 n=74 v=0
364 On ch=1 n=76 v=115
116 On ch=1 n=76 v=0
4 On ch=1 n=74 v=85
116 On ch=1 n=74 v=0
4 On ch=1 n=76 v=107
116 On ch=1 n=76 v=0
124 On ch=1 n=69 v=91
116 On ch=1 n=69 v=0
124 On ch=1 n=60 v=74
116 On ch=1 n=60 v=0
124 On ch=1 n=76 v=119
116 On ch=1 n=76 v=0
364 On ch=1 n=78 v=125
116 On ch=1 n=78 v=0
4 On ch=1 n=76 v=95
116 On ch=1 n=76 v=0
4 On ch=1 n=78 v=99
116 On ch=1 n=78 v=0
124 On ch=1 n=74 v=95
116 On ch=1 n=74 v=0
124 On ch=1 n=81 v=107
116 On ch=1 n=81 v=0
124 On ch=1 n=72 v=111
476 On ch=1 n=72 v=0
4 On ch=1 n=71 v=109
356 On ch=1 n=71 v=0
4 On ch=1 n=67 v=96
116 On ch=1 n=67 v=0
4 On ch=1 n=71 v=98
116 On ch=1 n=71 v=0
4 On ch=1 n=74 v=97
116 On ch=1 n=74 v=0
4 On ch=1 n=79 v=107
116 On ch=1 n=79 v=0
4 On ch=1 n=74 v=90
116 On ch=1 n=74 v=0
4 On ch=1 n=79 v=66
116 On ch=1 n=79 v=0
4 On ch=1 n=81 v=104
116 On ch=1 n=81 v=0
4 On ch=1 n=83 v=119
116 On ch=1 n=83 v=0
4 On ch=1 n=79 v=88
116 On ch=1 n=79 v=0
4 On ch=1 n=74 v=86
116 On ch=1 n=74 v=0
4 On ch=1 n=71 v=71
116 On ch=1 n=71 v=0
4 On ch=1 n=67 v=91
116 On ch=1 n=67 v=0
4 On ch=1 n=71 v=75
116 On ch=1 n=71 v=0
4 On ch=1 n=74 v=75
116 On ch=1 n=74 v=0
4 On ch=1 n=79 v=46
116 On ch=1 n=79 v=0
4 On ch=1 n=83 v=107
116 On ch=1 n=83 v=0
4 On ch=1 n=79 v=89
116 On ch=1 n=79 v=0
4 On ch=1 n=78 v=97
116 On ch=1 n=78 v=0
4 On ch=1 n=76 v=88
116 On ch=1 n=76 v=0
4 On ch=1 n=81 v=107
120 On ch=1 n=81 v=0
0 On ch=1 n=76 v=96
120 On ch=1 n=76 v=0
0 On ch=1 n=73 v=90
120 On ch=1 n=73 v=0
0 On ch=1 n=69 v=77
120 On ch=1 n=69 v=0
0 On ch=1 n=66 v=104
120 On ch=1 n=66 v=0
0 On ch=1 n=69 v=63
120 On ch=1 n=69 v=0
0 On ch=1 n=73 v=49
116 On ch=1 n=73 v=0
4 On ch=1 n=76 v=72
116 On ch=1 n=76 v=0
4 On ch=1 n=81 v=93
116 On ch=1 n=81 v=0
4 On ch=1 n=78 v=77
116 On ch=1 n=78 v=0
4 On ch=1 n=76 v=91
116 On ch=1 n=76 v=0
4 On ch=1 n=74 v=93
116 On ch=1 n=74 v=0
4 On ch=1 n=79 v=102
116 On ch=1 n=79 v=0
4 On ch=1 n=74 v=86
116 On ch=1 n=74 v=0
4 On ch=1 n=71 v=90
116 On ch=1 n=71 v=0
4 On ch=1 n=67 v=91
116 On ch=1 n=67 v=0
4 On ch=1 n=64 v=88
116 On ch=1 n=64 v=0
4 On ch=1 n=67 v=73
116 On ch=1 n=67 v=0
4 On ch=1 n=71 v=92
116 On ch=1 n=71 v=0
4 On ch=1 n=74 v=95
116 On ch=1 n=74 v=0
4 On ch=1 n=79 v=102
116 On ch=1 n=79 v=0
4 On ch=1 n=78 v=108
116 On ch=1 n=78 v=0
4 On ch=1 n=76 v=77
116 On ch=1 n=76 v=0
4 On ch=1 n=74 v=67
116 On ch=1 n=74 v=0
4 On ch=1 n=73 v=99
116 On ch=1 n=73 v=0
4 On ch=1 n=67 v=92
116 On ch=1 n=67 v=0
4 On ch=1 n=64 v=95
116 On ch=1 n=64 v=0
4 On ch=1 n=61 v=119
116 On ch=1 n=61 v=0
4 On ch=1 n=57 v=66
116 On ch=1 n=57 v=0
4 On ch=1 n=61 v=119
116 On ch=1 n=61 v=0
4 On ch=1 n=64 v=78
116 On ch=1 n=64 v=0
4 On ch=1 n=67 v=104
116 On ch=1 n=67 v=0
4 On ch=1 n=73 v=104
116 On ch=1 n=73 v=0
4 On ch=1 n=76 v=109
116 On ch=1 n=76 v=0
4 On ch=1 n=74 v=97
116 On ch=1 n=74 v=0
4 On ch=1 n=73 v=110
116 On ch=1 n=73 v=0
4 On ch=1 n=74 v=113
240 On ch=1 n=74 v=0
0 On ch=1 n=54 v=115
240 On ch=1 n=54 v=0
0 On ch=1 n=54 v=115
240 On ch=1 n=54 v=0
0 On ch=1 n=69 v=100
236 On ch=1 n=69 v=0
4 On ch=1 n=74 v=109
236 On ch=1 n=74 v=0
4 On ch=1 n=78 v=115
240 On ch=1 n=78 v=0
0 On ch=1 n=71 v=115
240 On ch=1 n=71 v=0
0 On ch=1 n=55 v=115
240 On ch=1 n=55 v=0
0 On ch=1 n=55 v=115
240 On ch=1 n=55 v=0
0 On ch=1 n=71 v=115
240 On ch=1 n=71 v=0
0 On ch=1 n=76 v=115
240 On ch=1 n=76 v=0
0 On ch=1 n=79 v=115
240 On ch=1 n=79 v=0
0 On ch=1 n=73 v=127
120 On ch=1 n=76 v=96
8 On ch=1 n=73 v=0
92 On ch=1 n=76 v=0
20 On ch=1 n=69 v=92
120 On ch=1 n=67 v=90
4 On ch=1 n=69 v=0
116 On ch=1 n=66 v=104
12 On ch=1 n=67 v=0
92 On ch=1 n=66 v=0
16 On ch=1 n=69 v=96
120 On ch=1 n=69 v=0
0 On ch=1 n=74 v=95
120 On ch=1 n=74 v=0
0 On ch=1 n=78 v=94
116 On ch=1 n=78 v=0
4 On ch=1 n=79 v=104
120 On ch=1 n=76 v=98
20 On ch=1 n=79 v=0
100 On ch=1 n=74 v=93
8 On ch=1 n=76 v=0
112 On ch=1 n=73 v=90
12 On ch=1 n=74 v=0
108 On ch=1 n=78 v=92
12 On ch=1 n=73 v=0
108 On ch=1 n=74 v=67
4 On ch=1 n=78 v=0
116 On ch=1 n=73 v=90
8 On ch=1 n=74 v=0
112 On ch=1 n=71 v=80
20 On ch=1 n=73 v=0
100 On ch=1 n=69 v=83
4 On ch=1 n=71 v=0
116 On ch=1 n=67 v=89
8 On ch=1 n=69 v=0
112 On ch=1 n=66 v=106
36 On ch=1 n=67 v=0
84 On ch=1 n=66 v=0
0 On ch=1 n=64 v=89
120 On ch=1 n=64 v=0
0 On ch=1 n=62 v=107
476 On ch=1 n=62 v=0
4 On ch=1 n=78 v=102
120 On ch=1 n=78 v=0
0 On ch=1 n=79 v=82
120 On ch=1 n=79 v=0
0 On ch=1 n=81 v=102
372 On ch=1 n=81 v=0
0 On ch=1 n=83 v=107
116 On ch=1 n=81 v=84
36 On ch=1 n=83 v=0
76 On ch=1 n=79 v=92
28 On ch=1 n=81 v=0
92 On ch=1 n=78 v=112
16 On ch=1 n=79 v=0
104 On ch=1 n=78 v=0
0 On ch=1 n=76 v=80
120 On ch=1 n=76 v=0
0 On ch=1 n=74 v=78
120 On ch=1 n=74 v=0
0 On ch=1 n=72 v=85
120 On ch=1 n=72 v=0
0 On ch=1 n=71 v=83
120 On ch=1 n=71 v=0
0 On ch=1 n=72 v=86
120 On ch=1 n=72 v=0
0 On ch=1 n=74 v=91
348 On ch=1 n=76 v=91
12 On ch=1 n=74 v=0
112 On ch=1 n=74 v=89
28 On ch=1 n=76 v=0
88 On ch=1 n=72 v=89
28 On ch=1 n=74 v=0
84 On ch=1 n=72 v=0
20 On ch=1 n=71 v=80
120 On ch=1 n=71 v=0
0 On ch=1 n=69 v=84
120 On ch=1 n=69 v=0
0 On ch=1 n=67 v=71
120 On ch=1 n=67 v=0
0 On ch=1 n=66 v=102
120 On ch=1 n=66 v=0
0 On ch=1 n=64 v=88
120 On ch=1 n=68 v=88
24 On ch=1 n=64 v=0
96 On ch=1 n=68 v=0
0 On ch=1 n=69 v=82
120 On ch=1 n=71 v=92
24 On ch=1 n=69 v=0
96 On ch=1 n=69 v=71
32 On ch=1 n=71 v=0
72 On ch=1 n=69 v=0
16 On ch=1 n=64 v=75
120 On ch=1 n=69 v=81
28 On ch=1 n=64 v=0
92 On ch=1 n=69 v=0
0 On ch=1 n=71 v=78
120 On ch=1 n=72 v=78
16 On ch=1 n=71 v=0
92 On ch=1 n=72 v=0
12 On ch=1 n=69 v=84
120 On ch=1 n=69 v=0
0 On ch=1 n=75 v=63
120 On ch=1 n=75 v=0
0 On ch=1 n=76 v=66
108 On ch=1 n=78 v=101
16 On ch=1 n=76 v=0
96 On ch=1 n=76 v=84
4 On ch=1 n=78 v=0
124 On ch=1 n=75 v=89
28 On ch=1 n=76 v=0
96 On ch=1 n=73 v=93
20 On ch=1 n=75 v=0
108 On ch=1 n=71 v=88
4 On ch=1 n=73 v=0
1008 On ch=1 n=71 v=0
68 On ch=1 n=75 v=88
72 On ch=1 n=75 v=0
48 On ch=1 n=76 v=88
356 On ch=1 n=63 v=90
56 On ch=1 n=76 v=0
52 On ch=1 n=63 v=0
16 On ch=1 n=64 v=95
340 On ch=1 n=64 v=0
36 On ch=1 n=51 v=106
88 On ch=1 n=51 v=0
24 On ch=1 n=52 v=95
228 On ch=1 n=52 v=0
124 On ch=1 n=80 v=104
120 On ch=1 n=80 v=0
0 On ch=1 n=81 v=97
336 On ch=1 n=81 v=0
24 On ch=1 n=68 v=94
84 On ch=1 n=68 v=0
36 On ch=1 n=69 v=95
360 On ch=1 n=69 v=0
0 On ch=1 n=56 v=121
92 On ch=1 n=56 v=0
28 On ch=1 n=57 v=117
360 On ch=1 n=59 v=117
56 On ch=1 n=57 v=0
64 On ch=1 n=59 v=0
0 On ch=1 n=60 v=117
120 On ch=1 n=60 v=0
0 On ch=1 n=66 v=117
120 On ch=1 n=66 v=0
0 On ch=1 n=59 v=117
120 On ch=1 n=59 v=0
0 On ch=1 n=63 v=117
120 On ch=1 n=63 v=0
0 On ch=1 n=64 v=117
120 On ch=1 n=64 v=0
0 On ch=1 n=67 v=117
120 On ch=1 n=67 v=0
0 On ch=1 n=66 v=117
120 On ch=1 n=66 v=0
0 On ch=1 n=64 v=117
120 On ch=1 n=64 v=0
0 On ch=1 n=63 v=117
120 On ch=1 n=63 v=0
0 On ch=1 n=69 v=117
120 On ch=1 n=69 v=0
0 On ch=1 n=67 v=117
120 On ch=1 n=67 v=0
0 On ch=1 n=66 v=117
120 On ch=1 n=66 v=0
0 On ch=1 n=64 v=117
120 On ch=1 n=64 v=0
0 On ch=1 n=63 v=117
120 On ch=1 n=63 v=0
0 On ch=1 n=64 v=117
120 On ch=1 n=64 v=0
0 On ch=1 n=67 v=117
120 On ch=1 n=67 v=0
0 On ch=1 n=59 v=117
120 On ch=1 n=59 v=0
0 On ch=1 n=57 v=117
120 On ch=1 n=57 v=0
0 On ch=1 n=55 v=117
120 On ch=1 n=55 v=0
0 On ch=1 n=59 v=117
120 On ch=1 n=59 v=0
0 On ch=1 n=52 v=117
240 On ch=1 n=52 v=0
240 On ch=1 n=76 v=117
240 On ch=1 n=76 v=0
0 On ch=1 n=72 v=117
240 On ch=1 n=72 v=0
0 On ch=1 n=76 v=117
240 On ch=1 n=76 v=0
0 On ch=1 n=81 v=117
240 On ch=1 n=81 v=0
0 On ch=1 n=69 v=117
240 On ch=1 n=69 v=0
240 On ch=1 n=74 v=117
240 On ch=1 n=74 v=0
0 On ch=1 n=71 v=117
240 On ch=1 n=71 v=0
0 On ch=1 n=74 v=117
240 On ch=1 n=74 v=0
0 On ch=1 n=79 v=117
240 On ch=1 n=79 v=0
0 On ch=1 n=67 v=117
240 On ch=1 n=67 v=0
0 On ch=1 n=72 v=117
120 On ch=1 n=72 v=0
0 On ch=1 n=69 v=117
120 On ch=1 n=69 v=0
0 On ch=1 n=64 v=117
120 On ch=1 n=64 v=0
0 On ch=1 n=60 v=117
120 On ch=1 n=60 v=0
0 On ch=1 n=57 v=117
120 On ch=1 n=57 v=0
0 On ch=1 n=60 v=117
120 On ch=1 n=60 v=0
0 On ch=1 n=64 v=117
120 On ch=1 n=64 v=0
0 On ch=1 n=69 v=117
120 On ch=1 n=69 v=0
0 On ch=1 n=72 v=117
120 On ch=1 n=72 v=0
0 On ch=1 n=69 v=117
120 On ch=1 n=69 v=0
0 On ch=1 n=72 v=117
120 On ch=1 n=72 v=0
0 On ch=1 n=76 v=117
120 On ch=1 n=76 v=0
0 On ch=1 n=78 v=117
120 On ch=1 n=78 v=0
0 On ch=1 n=72 v=117
120 On ch=1 n=72 v=0
0 On ch=1 n=69 v=117
120 On ch=1 n=69 v=0
0 On ch=1 n=66 v=117
120 On ch=1 n=66 v=0
0 On ch=1 n=62 v=117
120 On ch=1 n=62 v=0
0 On ch=1 n=66 v=117
120 On ch=1 n=66 v=0
0 On ch=1 n=69 v=117
120 On ch=1 n=69 v=0
0 On ch=1 n=72 v=117
120 On ch=1 n=72 v=0
0 On ch=1 n=78 v=117
120 On ch=1 n=78 v=0
0 On ch=1 n=72 v=117
120 On ch=1 n=72 v=0
0 On ch=1 n=78 v=117
120 On ch=1 n=78 v=0
0 On ch=1 n=81 v=117
120 On ch=1 n=81 v=0
0 On ch=1 n=83 v=117
120 On ch=1 n=83 v=0
0 On ch=1 n=79 v=117
120 On ch=1 n=79 v=0
0 On ch=1 n=74 v=117
120 On ch=1 n=74 v=0
0 On ch=1 n=71 v=117
120 On ch=1 n=71 v=0
0 On ch=1 n=67 v=117
120 On ch=1 n=67 v=0
0 On ch=1 n=71 v=117
120 On ch=1 n=71 v=0
0 On ch=1 n=74 v=117
120 On ch=1 n=74 v=0
0 On ch=1 n=79 v=117
120 On ch=1 n=79 v=0
0 On ch=1 n=83 v=117
120 On ch=1 n=83 v=0
0 On ch=1 n=77 v=117
120 On ch=1 n=77 v=0
0 On ch=1 n=83 v=117
120 On ch=1 n=83 v=0
0 On ch=1 n=86 v=117
120 On ch=1 n=86 v=0
0 On ch=1 n=76 v=117
120 On ch=1 n=76 v=0
0 On ch=1 n=86 v=117
120 On ch=1 n=86 v=0
0 On ch=1 n=84 v=117
120 On ch=1 n=84 v=0
0 On ch=1 n=76 v=117
120 On ch=1 n=76 v=0
0 On ch=1 n=74 v=117
120 On ch=1 n=74 v=0
0 On ch=1 n=84 v=117
120 On ch=1 n=84 v=0
0 On ch=1 n=83 v=117
120 On ch=1 n=83 v=0
0 On ch=1 n=74 v=117
120 On ch=1 n=74 v=0
0 On ch=1 n=72 v=117
120 On ch=1 n=72 v=0
0 On ch=1 n=76 v=117
120 On ch=1 n=76 v=0
0 On ch=1 n=78 v=117
120 On ch=1 n=78 v=0
0 On ch=1 n=79 v=117
120 On ch=1 n=79 v=0
0 On ch=1 n=81 v=117
120 On ch=1 n=81 v=0
0 On ch=1 n=72 v=117
120 On ch=1 n=72 v=0
0 On ch=1 n=71 v=117
120 On ch=1 n=71 v=0
0 On ch=1 n=69 v=117
120 On ch=1 n=69 v=0
0 On ch=1 n=71 v=117
120 On ch=1 n=71 v=0
0 On ch=1 n=74 v=117
120 On ch=1 n=74 v=0
0 On ch=1 n=71 v=117
120 On ch=1 n=71 v=0
0 On ch=1 n=67 v=117
120 On ch=1 n=67 v=0
0 On ch=1 n=72 v=117
120 On ch=1 n=72 v=0
0 On ch=1 n=69 v=117
120 On ch=1 n=69 v=0
0 On ch=1 n=67 v=117
120 On ch=1 n=67 v=0
0 On ch=1 n=66 v=117
120 On ch=1 n=66 v=0
0 On ch=1 n=71 v=117
120 On ch=1 n=71 v=0
0 On ch=1 n=67 v=117
120 On ch=1 n=67 v=0
0 On ch=1 n=66 v=117
120 On ch=1 n=66 v=0
0 On ch=1 n=64 v=117
120 On ch=1 n=64 v=0
0 On ch=1 n=62 v=117
120 On ch=1 n=62 v=0
0 On ch=1 n=60 v=117
120 On ch=1 n=60 v=0
0 On ch=1 n=59 v=117
120 On ch=1 n=59 v=0
0 On ch=1 n=57 v=117
120 On ch=1 n=57 v=0
0 On ch=1 n=55 v=117
480 On ch=1 n=55 v=0
